<svg width="74" height="57" viewBox="0 0 74 57" fill="none" xmlns="http://www.w3.org/2000/svg">
<path d="M2.64358 15H0V34.0926H2.64358V27.0094C2.64358 25.8111 2.94164 24.8658 3.53774 24.2001C4.13384 23.5344 4.95024 23.1882 5.96102 23.1882C6.82926 23.1882 7.55495 23.5078 8.13809 24.1202C8.72124 24.746 9.01929 25.5315 9.01929 26.4769V34.1059H11.6758V26.4769C11.6758 24.7194 11.1964 23.3347 10.2374 22.2962C9.27846 21.2577 8.02146 20.7384 6.49233 20.7384C6.05173 20.7384 5.61114 20.7917 5.1835 20.9115C4.7429 21.0313 4.39301 21.1645 4.10792 21.3109C3.82283 21.4574 3.5507 21.6172 3.30448 21.8036C3.05826 21.99 2.8898 22.1231 2.81205 22.203C2.7343 22.2829 2.6695 22.3361 2.64358 22.3761V15Z" fill="#F0145A"/>
<path d="M17.5856 15H14.8604V34.0767H17.5856V15Z" fill="white"/>
<path d="M33.6598 28.4896L33.796 27.127C33.796 25.3011 33.1965 23.7749 31.9701 22.5486C30.7438 21.3222 29.2176 20.7227 27.3917 20.7227C25.5658 20.7227 23.9851 21.3767 22.677 22.6848C21.3689 23.993 20.7148 25.5463 20.7148 27.3995C20.7148 29.3072 21.3962 30.9423 22.7315 32.305C24.0669 33.6676 25.6748 34.3489 27.528 34.3489C28.2365 34.3489 28.8906 34.2399 29.5446 34.0491C30.1987 33.8311 30.7438 33.6131 31.1253 33.3951C31.5341 33.1498 31.9429 32.8773 32.2971 32.5775C32.6514 32.2777 32.8967 32.0597 33.0057 31.9234C33.1147 31.7872 33.1965 31.7054 33.251 31.6236L31.4796 29.8522L31.0708 30.37C30.7983 30.6971 30.335 31.0241 29.6809 31.3784C28.9996 31.7327 28.291 31.8962 27.528 31.8962C26.4651 31.8962 25.5658 31.5691 24.8027 30.8878C24.0396 30.2065 23.5764 29.4162 23.4401 28.4896H33.6598ZM27.3917 23.0391C28.4 23.0391 29.2176 23.3389 29.8989 23.9112C30.553 24.5108 30.9618 25.2466 31.1253 26.1732H23.5491C23.7944 25.2466 24.2304 24.5108 24.9117 23.9112C25.5658 23.3389 26.4106 23.0391 27.3917 23.0391Z" fill="white"/>
<path d="M46.3695 33.286C46.3695 34.4852 46.0153 35.4662 45.2794 36.2293C44.5709 36.9651 43.6715 37.3467 42.5542 37.3467C42.0637 37.3467 41.5731 37.2649 41.1098 37.1286C40.6465 36.9924 40.2922 36.8289 39.9925 36.6381C39.6927 36.4473 39.4202 36.2566 39.1476 36.0113C38.9024 35.766 38.7389 35.6025 38.6571 35.5207C38.5753 35.439 38.5208 35.3572 38.4663 35.3027L36.6949 37.0741L36.9129 37.3467C37.0492 37.5374 37.2945 37.7827 37.6215 38.0552C37.9485 38.3005 38.3301 38.573 38.7661 38.8455C39.2021 39.0908 39.7472 39.3088 40.4285 39.4996C41.1098 39.6904 41.8184 39.7994 42.5542 39.7994C44.4074 39.7994 45.9335 39.1726 47.2144 37.919C48.468 36.6381 49.0948 35.112 49.0948 33.2588V20.9952H46.3695V22.3578L45.9062 21.949C45.6065 21.6765 45.1432 21.404 44.4891 21.1314C43.8351 20.8589 43.1265 20.7227 42.4179 20.7227C40.7555 20.7227 39.3384 21.3495 38.112 22.6303C36.8857 23.9112 36.2861 25.4373 36.2861 27.2632C36.2861 29.0892 36.8857 30.6153 38.112 31.8962C39.3384 33.177 40.7555 33.8038 42.4179 33.8038C42.8812 33.8038 43.3173 33.7493 43.7806 33.6403C44.2166 33.5041 44.5709 33.3678 44.8707 33.2315C45.1704 33.0953 45.443 32.9318 45.6882 32.741C45.9335 32.5502 46.1243 32.414 46.1788 32.3595L46.3695 32.1687V33.286ZM39.0114 27.2632C39.0114 26.1186 39.3657 25.1648 40.1015 24.3745C40.8373 23.5842 41.7094 23.1754 42.6905 23.1754C43.6715 23.1754 44.5436 23.5842 45.2794 24.3745C45.988 25.1648 46.3695 26.1186 46.3695 27.2632C46.3695 28.4079 45.988 29.3617 45.2794 30.152C44.5436 30.9423 43.6715 31.3511 42.6905 31.3511C41.7094 31.3511 40.8373 30.9423 40.1015 30.152C39.3657 29.3617 39.0114 28.4079 39.0114 27.2632Z" fill="white"/>
<path d="M63.3195 34.0764V25.6281C63.3195 24.2382 62.8017 23.0664 61.7934 22.1398C60.7851 21.1859 59.4769 20.7227 57.869 20.7227C57.2422 20.7227 56.6154 20.8044 56.0159 20.9679C55.4163 21.1587 54.9258 21.3495 54.5715 21.5675C54.2172 21.7855 53.8629 22.0308 53.5359 22.3306C53.2089 22.6031 53.0181 22.7938 52.9091 22.9029C52.8273 23.0119 52.7456 23.0936 52.6911 23.1754L54.4625 24.9468L54.8168 24.4835C55.0348 24.1837 55.4163 23.9112 55.9886 23.6114C56.5609 23.3116 57.1877 23.1754 57.869 23.1754C58.6594 23.1754 59.3134 23.4207 59.8312 23.8839C60.349 24.3472 60.5943 24.9468 60.5943 25.6281L55.8251 26.4457C54.6533 26.6364 53.6994 27.0997 53.0454 27.8356C52.364 28.5714 52.0098 29.4707 52.0098 30.5335C52.0098 31.5419 52.4458 32.414 53.3179 33.177C54.2172 33.9674 55.3073 34.3489 56.6427 34.3489C57.106 34.3489 57.542 34.2944 57.9781 34.1581C58.4413 34.0491 58.7956 33.9129 59.0954 33.7766C59.3952 33.6403 59.6677 33.4768 59.913 33.286C60.1583 33.0953 60.3218 32.959 60.4308 32.9045C60.5125 32.8228 60.567 32.741 60.5943 32.7137V34.0764H63.3195ZM57.0515 31.8962C56.3429 31.8962 55.7706 31.7327 55.3618 31.4056C54.9258 31.0786 54.735 30.6971 54.735 30.261C54.735 29.7977 54.8713 29.3889 55.1711 29.0892C55.4708 28.7894 55.8796 28.5714 56.3702 28.4896L60.5943 27.8083V28.0808C60.5943 29.3072 60.2945 30.2338 59.6677 30.9151C59.0409 31.5691 58.1688 31.8962 57.0515 31.8962Z" fill="white"/>
<path d="M69.3337 15H66.6084V34.0767H69.3337V15Z" fill="white"/>
<path d="M0 43.3308H0.852878V46.3211H2.70078V47.016H0V43.3308Z" fill="white"/>
<path d="M8.26752 46.2263H6.5565L6.23009 47.016H5.35615L6.99873 43.3308H7.84108L9.48893 47.016H8.59393L8.26752 46.2263ZM7.99902 45.5788L7.41464 44.1678L6.83026 45.5788H7.99902Z" fill="white"/>
<path d="M17.8731 43.3308L16.6675 47.016H15.7515L14.9407 44.5206L14.1036 47.016H13.1928L11.982 43.3308H12.8664L13.6982 45.921L14.5669 43.3308H15.3566L16.199 45.942L17.0571 43.3308H17.8731Z" fill="white"/>
<path d="M26.9457 47.0792C26.5702 47.0792 26.2297 46.9985 25.9244 46.837C25.6225 46.6721 25.3838 46.4457 25.2084 46.1579C25.0364 45.8666 24.9504 45.5384 24.9504 45.1734C24.9504 44.8084 25.0364 44.482 25.2084 44.1942C25.3838 43.9028 25.6225 43.6765 25.9244 43.515C26.2297 43.3501 26.5719 43.2676 26.951 43.2676C27.2704 43.2676 27.5582 43.3237 27.8144 43.436C28.0741 43.5484 28.2917 43.7098 28.4672 43.9204L27.9197 44.4258C27.6705 44.138 27.3616 43.9941 26.9931 43.9941C26.7649 43.9941 26.5614 44.045 26.3824 44.1468C26.2034 44.2451 26.063 44.3837 25.9612 44.5627C25.8629 44.7417 25.8138 44.9453 25.8138 45.1734C25.8138 45.4015 25.8629 45.6051 25.9612 45.7841C26.063 45.9631 26.2034 46.1035 26.3824 46.2053C26.5614 46.3035 26.7649 46.3527 26.9931 46.3527C27.3616 46.3527 27.6705 46.207 27.9197 45.9157L28.4672 46.4211C28.2917 46.6352 28.0741 46.7984 27.8144 46.9107C27.5547 47.0231 27.2651 47.0792 26.9457 47.0792Z" fill="white"/>
<path d="M33.3831 47.0792C33.0005 47.0792 32.6548 46.9967 32.3459 46.8318C32.0406 46.6668 31.8002 46.4404 31.6247 46.1526C31.4527 45.8613 31.3667 45.5349 31.3667 45.1734C31.3667 44.8119 31.4527 44.4872 31.6247 44.1994C31.8002 43.9081 32.0406 43.68 32.3459 43.515C32.6548 43.3501 33.0005 43.2676 33.3831 43.2676C33.7657 43.2676 34.1096 43.3501 34.415 43.515C34.7203 43.68 34.9607 43.9081 35.1362 44.1994C35.3117 44.4872 35.3995 44.8119 35.3995 45.1734C35.3995 45.5349 35.3117 45.8613 35.1362 46.1526C34.9607 46.4404 34.7203 46.6668 34.415 46.8318C34.1096 46.9967 33.7657 47.0792 33.3831 47.0792ZM33.3831 46.3527C33.6007 46.3527 33.7972 46.3035 33.9727 46.2053C34.1482 46.1035 34.2851 45.9631 34.3834 45.7841C34.4852 45.6051 34.5361 45.4015 34.5361 45.1734C34.5361 44.9453 34.4852 44.7417 34.3834 44.5627C34.2851 44.3837 34.1482 44.2451 33.9727 44.1468C33.7972 44.045 33.6007 43.9941 33.3831 43.9941C33.1655 43.9941 32.9689 44.045 32.7934 44.1468C32.618 44.2451 32.4793 44.3837 32.3775 44.5627C32.2793 44.7417 32.2301 44.9453 32.2301 45.1734C32.2301 45.4015 32.2793 45.6051 32.3775 45.7841C32.4793 45.9631 32.618 46.1035 32.7934 46.2053C32.9689 46.3035 33.1655 46.3527 33.3831 46.3527Z" fill="white"/>
<path d="M42.0264 47.016L42.0211 44.8049L40.9366 46.6264H40.5523L39.473 44.8522V47.016H38.6728V43.3308H39.3782L40.7576 45.6209L42.1159 43.3308H42.8161L42.8266 47.016H42.0264Z" fill="white"/>
<path d="M47.9285 43.3308C48.2549 43.3308 48.5374 43.3852 48.7761 43.494C49.0183 43.6028 49.2043 43.7572 49.3342 43.9573C49.464 44.1573 49.529 44.3942 49.529 44.668C49.529 44.9382 49.464 45.1751 49.3342 45.3787C49.2043 45.5788 49.0183 45.7332 48.7761 45.842C48.5374 45.9473 48.2549 45.9999 47.9285 45.9999H47.1862V47.016H46.3333V43.3308H47.9285ZM47.8811 45.305C48.1373 45.305 48.3321 45.2506 48.4655 45.1418C48.5989 45.0295 48.6656 44.8716 48.6656 44.668C48.6656 44.4609 48.5989 44.303 48.4655 44.1942C48.3321 44.0818 48.1373 44.0257 47.8811 44.0257H47.1862V45.305H47.8811Z" fill="white"/>
<path d="M55.0121 46.2263H53.3011L52.9747 47.016H52.1008L53.7433 43.3308H54.5857L56.2335 47.016H55.3385L55.0121 46.2263ZM54.7436 45.5788L54.1592 44.1678L53.5749 45.5788H54.7436Z" fill="white"/>
<path d="M62.6281 43.3308V47.016H61.9279L60.0906 44.7785V47.016H59.2482V43.3308H59.9537L61.7858 45.5682V43.3308H62.6281Z" fill="white"/>
<path d="M67.9013 45.7104V47.016H67.0485V45.6999L65.6217 43.3308H66.5273L67.5117 44.9681L68.4963 43.3308H69.3333L67.9013 45.7104Z" fill="white"/>
</svg>
